<svg xmlns="http://www.w3.org/2000/svg" width="157" height="157" viewBox="0 0 157 157">
  <defs>
    <style>
      .cls-1 {
        fill: #f4dbb8;
      }

      .cls-2 {
        fill: #323232;
      }
    </style>
  </defs>
  <title>Recurso 2</title>
  <g id="Capa_2" data-name="Capa 2">
    <g id="Capa_1-2" data-name="Capa 1">
      <g>
        <rect class="cls-1" width="157" height="157"/>
        <g>
          <path class="cls-2" d="M74.36,47.88a1.31,1.31,0,0,1-1,.41H49a.52.52,0,0,0-.58.59V67.3a.52.52,0,0,0,.58.59H63a1.34,1.34,0,0,1,1,.4,1.39,1.39,0,0,1,.41,1V80.6A1.4,1.4,0,0,1,63,82H49a.51.51,0,0,0-.58.58v18.54a.52.52,0,0,0,.58.59H73.37a1.31,1.31,0,0,1,1,.41,1.35,1.35,0,0,1,.41,1v11.31a1.4,1.4,0,0,1-1.4,1.4h-40a1.35,1.35,0,0,1-1-.41,1.31,1.31,0,0,1-.41-1V35.58a1.31,1.31,0,0,1,.41-1,1.35,1.35,0,0,1,1-.41h40a1.4,1.4,0,0,1,1.4,1.4V46.89A1.35,1.35,0,0,1,74.36,47.88Z"/>
          <path class="cls-2" d="M92.61,114.07a19.31,19.31,0,0,1-7.93-7.52,21.82,21.82,0,0,1-2.8-11.14V91.68a1.35,1.35,0,0,1,.41-1,1.31,1.31,0,0,1,1-.41H96.69a1.4,1.4,0,0,1,1.4,1.4v2.91a8.89,8.89,0,0,0,1.81,5.83,5.68,5.68,0,0,0,4.61,2.22,6,6,0,0,0,4.66-2.1A8,8,0,0,0,111,95.06a8.65,8.65,0,0,0-2.28-6,65.31,65.31,0,0,0-9-7.4,111.16,111.16,0,0,1-9.45-7.47,29.33,29.33,0,0,1-6.18-8,23.09,23.09,0,0,1-2.57-11.08q0-9.91,6.18-15.86t16.21-6q10.26,0,16.56,6.18t6.3,16.21v2.8a1.31,1.31,0,0,1-.41,1,1.35,1.35,0,0,1-1,.41H112a1.4,1.4,0,0,1-1.4-1.4V55.29a8.67,8.67,0,0,0-1.81-5.77,6,6,0,0,0-4.84-2.16,5.55,5.55,0,0,0-4.49,2,8.66,8.66,0,0,0-1.69,5.66A9.42,9.42,0,0,0,100,61.24a53.14,53.14,0,0,0,8.63,7.46q7.23,5.25,10.9,8.57a25.21,25.21,0,0,1,5.72,7.41,21.42,21.42,0,0,1,2,9.68q0,10.26-6.3,16.33t-16.44,6.06A25.31,25.31,0,0,1,92.61,114.07Z"/>
        </g>
      </g>
    </g>
  </g>
</svg>
